<?xml version="1.0" standalone="no"?>
<!DOCTYPE svg PUBLIC "-//W3C//DTD SVG 20010904//EN"
 "http://www.w3.org/TR/2001/REC-SVG-20010904/DTD/svg10.dtd">
<svg version="1.0" xmlns="http://www.w3.org/2000/svg"
 width="493.000000pt" height="493.000000pt" viewBox="0 0 493.000000 493.000000"
 preserveAspectRatio="xMidYMid meet">

<g transform="translate(0.000000,493.000000) scale(0.100000,-0.100000)"
fill="#ffffff" stroke="none">
<path d="M2374 4876 c-76 -51 -132 -120 -183 -226 l-46 -95 0 -155 c0 -151 1
-156 29 -213 38 -75 89 -133 138 -158 69 -35 68 -39 68 241 l0 250 34 37 c30
34 37 37 62 28 15 -6 36 -23 48 -38 19 -26 20 -38 17 -271 -3 -283 -4 -281 77
-246 71 31 118 84 147 166 32 93 39 157 26 245 -21 134 -83 250 -191 357 -71
71 -128 112 -154 112 -12 0 -44 -15 -72 -34z"/>
<path d="M1035 4463 c-11 -3 -26 -10 -32 -15 -25 -20 -12 -277 23 -436 32
-148 134 -298 256 -375 91 -58 141 -72 258 -72 97 0 110 2 165 30 95 48 90 61
-71 187 -120 93 -280 226 -342 283 -47 43 -53 53 -48 78 7 37 43 87 62 87 8 0
47 -28 87 -63 78 -68 158 -131 234 -187 26 -19 76 -61 110 -92 46 -43 75 -61
117 -73 31 -9 60 -14 66 -10 13 8 13 82 0 160 -12 76 -76 205 -136 273 -78 90
-205 161 -369 209 -51 15 -341 27 -380 16z"/>
<path d="M3565 4459 c-182 -24 -377 -127 -462 -243 -61 -83 -80 -122 -91 -192
-21 -122 -23 -168 -9 -187 35 -48 195 48 522 313 28 23 62 47 76 55 24 13 28
12 47 -8 11 -12 23 -34 27 -48 6 -23 -4 -37 -82 -116 -48 -49 -122 -114 -163
-144 -41 -31 -112 -83 -157 -117 -45 -33 -91 -66 -102 -72 -37 -19 -25 -72 21
-96 123 -64 247 -57 408 22 183 91 274 247 314 542 19 137 21 278 4 288 -19
12 -274 14 -353 3z"/>
<path d="M2371 3681 c-18 -18 -19 -41 -13 -718 3 -470 2 -702 -5 -706 -14 -9
-35 16 -74 88 -43 80 -93 147 -165 221 -69 71 -105 92 -165 96 -42 3 -44 2
-47 -26 -6 -51 7 -75 82 -154 117 -123 223 -308 272 -477 32 -113 43 -318 24
-446 -28 -191 -76 -361 -137 -485 -33 -65 -76 -144 -96 -174 -75 -111 -134
-193 -208 -288 -176 -227 -380 -547 -364 -572 4 -6 27 -10 53 -10 44 0 50 3
105 63 53 56 117 135 295 366 31 41 80 103 109 137 86 103 157 212 236 364
135 259 191 472 208 784 11 201 27 296 64 372 56 115 298 355 443 440 l64 38
-6 39 c-4 22 -9 44 -12 49 -11 18 -79 6 -149 -26 -101 -47 -145 -79 -252 -186
-51 -50 -97 -89 -103 -85 -16 10 -13 495 5 578 38 178 163 361 368 535 48 41
87 82 87 91 0 9 -9 31 -20 49 -43 70 -127 25 -333 -181 -59 -59 -112 -105
-118 -102 -6 4 -7 58 -3 151 7 142 7 145 -16 169 -30 32 -100 35 -129 6z"/>
<path d="M1077 3280 c-175 -37 -307 -87 -307 -117 0 -49 85 -327 125 -409 38
-78 56 -102 121 -162 134 -122 284 -177 469 -170 117 4 183 29 253 95 50 48
56 84 17 109 -36 24 -241 104 -440 173 -275 96 -281 100 -250 157 34 64 46 69
128 54 39 -7 81 -16 92 -21 11 -4 56 -19 101 -33 44 -14 135 -53 202 -86 67
-34 140 -67 163 -75 45 -16 95 -20 103 -7 18 29 -60 229 -120 308 -31 39 -115
107 -184 147 -98 56 -306 72 -473 37z"/>
<path d="M3505 3284 c-96 -20 -224 -83 -285 -140 -67 -62 -127 -175 -141 -265
-6 -38 -7 -73 -4 -79 4 -7 19 -9 38 -4 39 8 191 66 259 99 28 13 89 34 137 45
47 12 120 32 161 46 41 13 97 28 124 33 41 8 51 6 67 -10 26 -26 24 -71 -3
-97 -30 -27 -102 -57 -196 -82 -96 -25 -288 -93 -345 -121 -23 -12 -67 -30
-97 -39 -47 -14 -55 -20 -58 -42 -5 -38 57 -103 132 -138 158 -73 310 -64 503
30 94 46 108 56 150 113 66 89 117 202 164 362 58 201 57 183 17 199 -51 22
-254 74 -350 91 -102 18 -181 18 -273 -1z"/>
<path d="M3310 2064 c-66 -18 -152 -61 -233 -118 -108 -75 -169 -216 -171
-393 -1 -126 8 -135 88 -87 33 19 96 68 141 107 119 104 373 251 415 240 12
-3 33 -23 47 -44 34 -52 39 -48 -162 -168 -38 -23 -79 -47 -90 -54 -48 -30
-143 -105 -201 -160 -89 -82 -87 -97 14 -145 68 -32 88 -37 171 -40 l95 -4 95
48 c124 62 184 121 240 234 23 47 53 130 67 185 27 107 51 291 42 316 -6 15
-179 69 -287 89 -76 14 -206 11 -271 -6z"/>
<path d="M1295 2039 c-123 -33 -234 -71 -246 -85 -27 -33 35 -300 94 -402 57
-99 142 -170 252 -212 73 -27 222 -33 300 -11 122 34 199 96 193 155 l-3 31
-150 6 c-140 6 -274 27 -313 48 -9 5 -33 26 -52 46 -30 31 -35 42 -33 81 3 87
23 90 218 30 189 -58 309 -88 340 -84 25 2 30 8 33 34 4 38 -17 90 -63 160
-26 38 -58 68 -118 107 -129 85 -173 100 -302 103 -60 2 -128 -2 -150 -7z"/>
<path d="M2745 1273 c-46 -11 -178 -125 -216 -186 -31 -50 -81 -186 -73 -199
2 -4 26 4 53 18 27 13 52 24 56 24 8 0 164 131 190 160 11 12 32 28 47 36 62
32 54 156 -10 153 -15 -1 -36 -4 -47 -6z"/>
</g>
</svg>
